<?xml version="1.0" encoding="UTF-8" standalone="no"?>
<!-- Created with Inkscape (http://www.inkscape.org/) -->

<svg
   xmlns:dc="http://purl.org/dc/elements/1.1/"
   xmlns:cc="http://creativecommons.org/ns#"
   xmlns:rdf="http://www.w3.org/1999/02/22-rdf-syntax-ns#"
   xmlns:svg="http://www.w3.org/2000/svg"
   xmlns="http://www.w3.org/2000/svg"
   xmlns:sodipodi="http://sodipodi.sourceforge.net/DTD/sodipodi-0.dtd"
   xmlns:inkscape="http://www.inkscape.org/namespaces/inkscape"
   version="1.1"
   id="svg841"
   xml:space="preserve"
   width="1232.1307"
   height="1156.5293"
   viewBox="0 0 1232.1307 1156.5293"
   sodipodi:docname="shade_body.svg"
   inkscape:version="0.92.2 (5c3e80d, 2017-08-06)"><metadata
     id="metadata847"><rdf:RDF><cc:Work
         rdf:about=""><dc:format>image/svg+xml</dc:format><dc:type
           rdf:resource="http://purl.org/dc/dcmitype/StillImage" /><dc:title></dc:title></cc:Work></rdf:RDF></metadata><defs
     id="defs845"><clipPath
       clipPathUnits="userSpaceOnUse"
       id="clipPath857"><path
         d="M 0,867.397 H 924.098 V 0 H 0 Z"
         id="path855"
         inkscape:connector-curvature="0" /></clipPath></defs><sodipodi:namedview
     pagecolor="#ffffff"
     bordercolor="#666666"
     borderopacity="1"
     objecttolerance="10"
     gridtolerance="10"
     guidetolerance="10"
     inkscape:pageopacity="0"
     inkscape:pageshadow="2"
     inkscape:window-width="1920"
     inkscape:window-height="1001"
     id="namedview843"
     showgrid="true"
     inkscape:zoom="0.70710678"
     inkscape:cx="415.65146"
     inkscape:cy="185.67022"
     inkscape:window-x="-9"
     inkscape:window-y="-9"
     inkscape:window-maximized="1"
     inkscape:current-layer="g859"
     units="mm"
     inkscape:snap-bbox="true"
     inkscape:bbox-paths="true"
     inkscape:bbox-nodes="true"
     inkscape:snap-bbox-edge-midpoints="true"
     inkscape:snap-bbox-midpoints="true"
     inkscape:document-units="mm"><inkscape:grid
       units="mm"
       spacingx="0.18897638"
       spacingy="0.18897638"
       empspacing="20"
       type="xygrid"
       id="grid4488" /></sodipodi:namedview><g
     id="g849"
     inkscape:groupmode="layer"
     inkscape:label="shade_body"
     transform="matrix(1.3333333,0,0,-1.3333333,0,1156.5293)"><g
       id="g851"
       style="stroke:#000000;stroke-width:2.83464575;stroke-miterlimit:4;stroke-dasharray:none;stroke-opacity:1"
       transform="matrix(0.57513234,0,0,0.57513234,17.150593,27.211704)"><g
         id="g853"
         clip-path="url(#clipPath857)"
         style="stroke:#000000;stroke-width:2.83464575;stroke-miterlimit:4;stroke-dasharray:none;stroke-opacity:1"><g
           id="g859"
           transform="translate(793.7021,418.9688)"
           style="stroke:#000000;stroke-width:2.83464575;stroke-miterlimit:4;stroke-dasharray:none;stroke-opacity:1"><path
             d="m -504.18414,-263.47214 -68.95629,119.43561 -9.81986,-5.66848 -15.0332,26.03661 9.82037,5.66938 -69.08187,119.6523845 c -4.67804,8.1014145 -4.6767,21.3577435 3.1e-4,29.4585535 l 68.95723,119.437402 -9.81901,5.669 15.03162,26.03752 9.81985,-5.6695 69.0818,119.65318 c 4.677,8.10081 16.15616,14.72926 25.5112,14.72867 l 137.9139,9.2e-4 3.7e-4,11.33663 30.06498,9.2e-4 -0.003,-11.33875 138.16483,6.6e-4 c 9.35505,-6e-4 20.83422,-6.6281 25.51223,-14.7295 l 69.081391,-119.65327 9.818984,5.66902 15.033791,-26.03729 -9.820128,-5.66735 L 6.0526605,31.111836 C 10.730698,23.010435 10.729849,9.7549637 6.0528437,1.6541534 L -62.903805,-117.78225 l 9.81901,-5.66899 -15.032499,-26.03703 -9.818987,5.66899 -69.082379,-119.65417 c -4.677,-8.1008 -16.15665,-14.73014 -25.5117,-14.72953 l -137.91339,5.8e-4 0,-11.33885 -30.06498,-7e-5 5.1e-4,11.33888 -138.16384,4.5e-4 c -9.35503,6e-4 -20.8342,6.62809 -25.51224,14.72949 z m -17.00876,-88.37804 391.18375,1.6e-4 c 9.35505,-6.1e-4 20.83456,6.6265 25.51257,14.72903 L 91.09541,1.6542997 c 4.677,8.1008016 4.676974,21.3567563 -0.001,29.4581663 L -104.49737,369.8876 c -4.67801,8.1014 -16.15718,14.7289 -25.51224,14.7295 l -391.18287,-6.4e-4 c -9.35504,6e-4 -20.83508,-6.62737 -25.51203,-14.72823 L -742.29659,31.113009 c -4.67799,-8.10253 -4.67748,-21.3576302 5.6e-4,-29.4590446 l 195.5909,-338.7746244 c 4.67754,-8.10228 16.15671,-14.72977 25.51223,-14.72952 z"
             style="fill:none;stroke:#000000;stroke-width:2.83464575;stroke-linecap:butt;stroke-linejoin:miter;stroke-miterlimit:4;stroke-dasharray:none;stroke-opacity:1"
             id="path861"
             inkscape:connector-curvature="0"
             sodipodi:nodetypes="ccccccsccccsccccccccccccsccccscccccccccssccccsscccc" /></g></g></g></g></svg>