<?xml version="1.0" encoding="UTF-8" standalone="no"?>
<!-- Created with Inkscape (http://www.inkscape.org/) -->

<svg
   xmlns:dc="http://purl.org/dc/elements/1.1/"
   xmlns:cc="http://creativecommons.org/ns#"
   xmlns:rdf="http://www.w3.org/1999/02/22-rdf-syntax-ns#"
   xmlns:svg="http://www.w3.org/2000/svg"
   xmlns="http://www.w3.org/2000/svg"
   xmlns:sodipodi="http://sodipodi.sourceforge.net/DTD/sodipodi-0.dtd"
   xmlns:inkscape="http://www.inkscape.org/namespaces/inkscape"
   version="1.1"
   id="svg815"
   xml:space="preserve"
   width="326.00125mm"
   height="305.99838mm"
   viewBox="0 0 1232.1307 1156.5293"
   sodipodi:docname="shade_top.svg"
   inkscape:version="0.92.2 (5c3e80d, 2017-08-06)"><metadata
     id="metadata821"><rdf:RDF><cc:Work
         rdf:about=""><dc:format>image/svg+xml</dc:format><dc:type
           rdf:resource="http://purl.org/dc/dcmitype/StillImage" /><dc:title></dc:title></cc:Work></rdf:RDF></metadata><defs
     id="defs819"><clipPath
       clipPathUnits="userSpaceOnUse"
       id="clipPath831"><path
         d="M 0,867.397 H 924.098 V 0 H 0 Z"
         id="path829"
         inkscape:connector-curvature="0" /></clipPath></defs><sodipodi:namedview
     pagecolor="#ffffff"
     bordercolor="#666666"
     borderopacity="1"
     objecttolerance="10"
     gridtolerance="10"
     guidetolerance="10"
     inkscape:pageopacity="0"
     inkscape:pageshadow="2"
     inkscape:window-width="1920"
     inkscape:window-height="1001"
     id="namedview817"
     showgrid="true"
     inkscape:zoom="1"
     inkscape:cx="669.65657"
     inkscape:cy="803.78637"
     inkscape:window-x="-9"
     inkscape:window-y="-9"
     inkscape:window-maximized="1"
     inkscape:current-layer="g4643"
     inkscape:document-units="mm"
     units="mm"
     inkscape:snap-bbox="true"
     inkscape:bbox-paths="true"
     inkscape:bbox-nodes="true"
     inkscape:snap-bbox-edge-midpoints="true"
     inkscape:snap-bbox-midpoints="true"
     showguides="false"><inkscape:grid
       type="xygrid"
       id="grid4488"
       units="mm"
       spacingx="0.18897638"
       spacingy="0.18897638"
       empspacing="20" /></sodipodi:namedview><g
     id="g823"
     inkscape:groupmode="layer"
     inkscape:label="shade_top"
     transform="matrix(1.3333333,0,0,-1.3333333,0,1156.5293)"><g
       id="g825"
       style="stroke:#000000;stroke-width:2.83464575;stroke-miterlimit:4;stroke-dasharray:none;stroke-opacity:1"><g
         id="g827"
         clip-path="url(#clipPath831)"
         style="stroke:#000000;stroke-width:2.83464575;stroke-miterlimit:4;stroke-dasharray:none;stroke-opacity:1"><g
           id="g833"
           transform="translate(677.2129,220.5098)"
           style="stroke:#000000;stroke-width:2.83464575;stroke-miterlimit:4;stroke-dasharray:none;stroke-opacity:1"><g
             id="g4643"><g
               id="g868"><path
                 id="path4511"
                 d="m -140.82739,-213.19127 a 3.4722285,3.4722285 0 0 1 -3.47223,3.47223 3.4722285,3.4722285 0 0 1 -3.47223,-3.47223 3.4722285,3.4722285 0 0 1 3.47223,-3.47223 3.4722285,3.4722285 0 0 1 3.47223,3.47223 z"
                 style="opacity:1;vector-effect:none;fill:none;fill-opacity:1;fill-rule:evenodd;stroke:#000000;stroke-width:0.1421569;stroke-linecap:butt;stroke-linejoin:miter;stroke-miterlimit:4;stroke-dasharray:none;stroke-dashoffset:0;stroke-opacity:1"
                 transform="scale(1,-1)" /><path
                 id="path4511-1"
                 d="m -282.55969,-213.19266 a 3.4722285,3.4722285 0 0 1 -3.47223,3.47223 3.4722285,3.4722285 0 0 1 -3.47223,-3.47223 3.4722285,3.4722285 0 0 1 3.47223,-3.47223 3.4722285,3.4722285 0 0 1 3.47223,3.47223 z"
                 style="opacity:1;vector-effect:none;fill:none;fill-opacity:1;fill-rule:evenodd;stroke:#000000;stroke-width:0.1421569;stroke-linecap:butt;stroke-linejoin:miter;stroke-miterlimit:4;stroke-dasharray:none;stroke-dashoffset:0;stroke-opacity:1"
                 transform="scale(1,-1)" /><path
                 d="m -383.27435,167.32805 44.86008,-5e-4 22.43019,-38.85022 -22.4294,-38.850008 -1.09844,-2.8e-5 -18.13217,31.406426 -5.64773,-3.26014 -8.64593,14.97425 5.64801,3.26064 -17.53358,30.36874 z m 159.46304,215.28859 5e-4,6.52057 17.29284,5.3e-4 -0.002,-6.52128 36.16562,-7e-5 0.54898,-0.95051 -22.43018,-38.85022 -44.86087,2.9e-4 -22.42969,38.84994 0.54896,0.95083 z m 159.620882,-246.69405 5.647228,-3.26043 -8.646245,-14.97573 -5.646654,3.26143 -18.082592,-31.319966 -22.429689,38.849936 22.43018,38.85021 44.859874,2.8e-4 z M -327.70658,1.4079896 l 224.98263,8.05e-5 c 5.380102,-5.751e-4 11.982637,3.8111237 14.672808,8.4706833 L 24.440241,204.71955 c 2.689896,4.65904 2.690178,12.28349 -3.16e-4,16.94286 L -88.051322,416.50313 c -2.690493,4.65938 -9.292539,8.47107 -14.672928,8.47142 l -224.98212,-4e-4 c -5.38039,3.5e-4 -11.98321,-3.81211 -14.67311,-8.47115 L -454.87087,221.6622 c -2.69018,-4.65953 -2.69017,-12.28348 5.8e-4,-16.94236 L -342.37954,9.8794091 c 2.6902,-4.6598818 9.29225,-8.471569 14.67293,-8.4714195 z"
                 style="fill:none;stroke:#000000;stroke-width:1.6302979;stroke-linecap:butt;stroke-linejoin:miter;stroke-miterlimit:4;stroke-dasharray:none;stroke-opacity:1"
                 id="path835"
                 inkscape:connector-curvature="0"
                 sodipodi:nodetypes="cccccccccccccccccccccccccccccccccssccccsscccc" /><path
                 id="path4564"
                 d="m -210.35231,-60.1213 a 4.8118091,4.8118091 0 0 1 -4.81181,4.811809 4.8118091,4.8118091 0 0 1 -4.81181,-4.811809 4.8118091,4.8118091 0 0 1 4.81181,-4.811809 4.8118091,4.8118091 0 0 1 4.81181,4.811809 z"
                 style="opacity:1;vector-effect:none;fill:none;fill-opacity:1;fill-rule:evenodd;stroke:#000000;stroke-width:0.29764143;stroke-linecap:butt;stroke-linejoin:miter;stroke-miterlimit:4;stroke-dasharray:none;stroke-dashoffset:0;stroke-opacity:1"
                 transform="scale(1,-1)" /><path
                 id="path4564-6"
                 d="m 297.09932,73.283203 a 4.8118095,4.8118095 0 0 1 -4.81181,4.81181 4.8118095,4.8118095 0 0 1 -4.81181,-4.81181 4.8118095,4.8118095 0 0 1 4.81181,-4.811809 4.8118095,4.8118095 0 0 1 4.81181,4.811809 z"
                 style="opacity:1;vector-effect:none;fill:none;fill-opacity:1;fill-rule:evenodd;stroke:#000000;stroke-width:0.29764143;stroke-linecap:butt;stroke-linejoin:miter;stroke-miterlimit:4;stroke-dasharray:none;stroke-dashoffset:0;stroke-opacity:1"
                 transform="matrix(-0.5,0.8660254,0.8660254,0.5,0,0)" /><path
                 id="path4564-6-7"
                 d="m 429.58543,-156.36568 a 4.8118095,4.8118095 0 0 1 -4.81181,4.81181 4.8118095,4.8118095 0 0 1 -4.81181,-4.81181 4.8118095,4.8118095 0 0 1 4.81181,-4.81181 4.8118095,4.8118095 0 0 1 4.81181,4.81181 z"
                 style="opacity:1;vector-effect:none;fill:none;fill-opacity:1;fill-rule:evenodd;stroke:#000000;stroke-width:0.29764143;stroke-linecap:butt;stroke-linejoin:miter;stroke-miterlimit:4;stroke-dasharray:none;stroke-dashoffset:0;stroke-opacity:1"
                 transform="matrix(-0.5,0.8660254,0.8660254,0.5,0,0)" /></g></g></g></g></g></g></svg>